<svg xmlns="http://www.w3.org/2000/svg" viewBox="0 0 200.01 42.02"><defs><style>.cls-1{fill:#fff;}</style></defs><g id="Camada_2" data-name="Camada 2"><g id="Camada_1-2" data-name="Camada 1"><path class="cls-1" d="M140.15,39.9a1.41,1.41,0,0,0-.44-.89,6.2,6.2,0,0,1-.66-.95c-.17-.31-.25-.66-.41-1-.38-.79-.83-2.08-1.15-2.89-.68-1.73-1.55-3.38-2.29-5.09-.26-.61-.6-1.18-.86-1.79-.71-1.62-1.38-3.25-2.08-4.87-.34-.78-.72-1.54-1.06-2.32-.62-1.37-1.22-2.76-1.83-4.14-.38-.86-.78-1.71-1.16-2.58-.51-1.16-1-2.34-1.5-3.5s-.89-2-1.33-3.05l-1.83-4.29a3.69,3.69,0,0,1-.49-1.24c0-.52-.35-.47-.59-.38a4.69,4.69,0,0,1-1.44.13c-.5,0-1,.14-1.5.15-2.33,0-4.66,0-7,0a1.36,1.36,0,0,1-.61,0c-.36-.2-.65-.05-1,0s-.38.06-.21.4a1.3,1.3,0,0,1,0,.95c-.31.86-.68,1.7-1,2.55-.75,1.75-1.59,3.47-2.29,5.25-.55,1.38-1.2,2.71-1.82,4.06-.45,1-.94,1.91-1.38,2.87-.7,1.53-1.37,3.06-2.06,4.58-.3.67-.64,1.32-.94,2-.63,1.42-1.25,2.84-1.89,4.26-.29.67-.63,1.32-.93,2-.63,1.4-1.2,2.82-1.86,4.2-.43.89-.75,1.83-1.24,2.7a16.22,16.22,0,0,0-1.09,2.53,1,1,0,0,1-.23.39h0a4.57,4.57,0,0,0,.26.83.43.43,0,0,0,0,.11v0l.37,0,.65,0h0l7.67-.14c.93,0,1.85,0,2.78,0l0-.85,0-.64c.12-.36.27-.7.42-1.05l1-2.48c.51-1.22.51-1.22,1.73-1.22h11.68a6.3,6.3,0,0,0,1.68,0,.59.59,0,0,1,.23,0c.4.14.83.44,1.2.38a6.79,6.79,0,0,1,1.3-.23c.52,0,.59.09.79.61.32.83.65,2.19,1,3,.14.37.29.74.44,1.12l0,0,.2.48.43,1a4,4,0,0,1,1.28-.11c1-.08,2.06,0,3.09,0a54.29,54.29,0,0,1,7.1.13.61.61,0,0,0,.42-.1,1.19,1.19,0,0,0,.26-.49,1.35,1.35,0,0,0,.05-.34h0ZM115.65,15c.3-.74.62-1.48.95-2.21a1.16,1.16,0,0,1,.28-.31,3.47,3.47,0,0,1,.18.33c.75,1.93,1.53,3.85,2.24,5.8.44,1.2.92,2.41,1.43,3.6a2.6,2.6,0,0,1,.16.47h0l.45,1.11a.36.36,0,0,0,0,.09c.23.61.47,1.2.71,1.8-2.62,0-5.25,0-7.87,0-1,0-2,0-3,0,.12-.31.24-.62.37-.93l1-2.28a.6.6,0,0,1,0-.14c.71-1.56,1.39-3.14,2-4.72C115,16.78,115.3,15.88,115.65,15Z"/><path class="cls-1" d="M28.71,36.41c-.13-1.21,0-2.44,0-3.67-.11-2.05,0-4.11,0-6.16,0-1.77.13-3.53,0-5.3s0-3.77,0-5.66c-.06-4.22.06-8.44.1-12.67,0-.15,0-.31,0-.46s0-.18,0-.23l.38-.65,0,0A7.14,7.14,0,0,0,27.76,1a1.09,1.09,0,0,0-1,0,1,1,0,0,1-.31.11c-.52,0-1,0-1.55.1-.83.11-1.67.1-2.51.14-.09,0-.24.05-.24.08a1.55,1.55,0,0,1,0,.15h0l-.06.47h0s.06.1.06.15c0,.64.07,1.28.08,1.92,0,2.28-.14,4.55,0,6.83s-.17,4.61,0,6.92c0,.35,0,.7,0,1.06.06,1.88-.14,3.76,0,5.64.12,1.59-.17,3.19,0,4.77a8.58,8.58,0,0,1,0,1.34v.17h0v.71l-.59,8,.5.21h0l.08.7a.11.11,0,0,0,0,.06c0,.06.08.12.34.09h0c.42-.05,3.67.22,3.67.22l2.09-.26.49-.18a7.22,7.22,0,0,0,0-1.47C28.67,38.13,28.8,37.27,28.71,36.41Z"/><path class="cls-1" d="M18.43,1.25a2.24,2.24,0,0,1-1.49,0c-.07,0-.18,0-.27.07-.34.15-.69-.09-1,0-.08,0-.18,0-.28-.05a3.31,3.31,0,0,0-1.09,0,1.34,1.34,0,0,1-.61.15c-.34,0-.68,0-1,0,0,.25-.09.52-.09.59,0,.5-.09,1-.14,1.49a10.45,10.45,0,0,1-.16,1.6c-.11.4,0,.82-.14,1.18a13.62,13.62,0,0,0-.22,1.56,14.87,14.87,0,0,0-.16,1.65c-.12.82-.3,1.63-.38,2.46s-.21,1.42-.26,2.13c-.08,1.07-.28,2.11-.4,3.16-.07.72-.15,1.45-.27,2.17s-.19,1.4-.26,2.1c-.11.95-.19,1.91-.28,2.86,0,.42-.08.84-.13,1.25a.5.5,0,0,1-.08.2s-.08.06-.12.09l0-.1c0-.4-.07-.79-.11-1.19s-.07-.75-.12-1.13c-.1-.72-.23-1.44-.32-2.17-.06-.44-.06-.88-.12-1.32-.09-.71-.28-1.41-.32-2.13-.05-.92-.22-1.82-.34-2.73S8,13.52,7.93,12.7c0-.38-.06-.77-.12-1.16s-.16-1-.22-1.48,0-.87-.12-1.29c-.19-.84-.17-1.7-.33-2.54-.09-.45,0-.92-.13-1.36A11.75,11.75,0,0,1,6.79,2.5c0-.25,0-.49,0-.74,0-.43,0-.48-.48-.49l-3.61,0c-.41,0-.82,0-1.24,0H0c0,.13.05.25.06.37.05.5.08,1,.12,1.5a8.12,8.12,0,0,0,.13,1A5.61,5.61,0,0,1,.55,5.67,3.69,3.69,0,0,1,.68,6.78c.09.69.25,1.37.35,2.06s.16,1.56.24,2.33c0,.37.06.74.13,1.11a23.7,23.7,0,0,1,.36,2.51,4.34,4.34,0,0,0,.12,1,18.77,18.77,0,0,1,.34,2.08c.13.72.15,1.46.25,2.18s.24,1.45.35,2.17.15,1.2.23,1.8c.12.84.25,1.68.35,2.51s.16,1.47.24,2.2a5.89,5.89,0,0,0,.12.94A8.56,8.56,0,0,1,4,31H4l.19,1.6h0c.06.33.13.66.16,1,.09.82.16,1.63.23,2.45,0,.35.07.7.12,1.05s.17.93.22,1.4S5,39.68,5,40.26c0,.21.09.45.34.51a2.91,2.91,0,0,0,.88.11c.7-.05,1.39,0,2.08,0a2.61,2.61,0,0,0,.4,0c.41-.06.81-.13,1.21-.21.86-.16,1.68.29,2.54.12.25.3.58-.13.84.08.1-.07.16-.1.2-.09h0l.24-.07.07-.11.24-.39A.52.52,0,0,1,14,40c.06-.46.11-.92.14-1.39.06-.69.1-1.38.15-2.07,0,0,0-.08,0-.12a7.87,7.87,0,0,0,.26-1.75,11.86,11.86,0,0,1,.14-1.45A13.69,13.69,0,0,0,15,31.09a14.61,14.61,0,0,1,.14-1.47c.12-.79.31-1.58.38-2.37s.15-1.66.28-2.49a22.9,22.9,0,0,0,.27-2.32c.05-.81.19-1.6.27-2.4s.19-1.56.28-2.34.17-1.46.29-2.18a24.41,24.41,0,0,0,.28-2.43c.05-.8.15-1.58.28-2.38s.23-1.67.29-2.51S18,6.72,18,6a16.27,16.27,0,0,1,.55-2.49.45.45,0,0,0,0-.23c0-.12-.2.24-.21,0a1,1,0,0,1,.12-.31c.07-.18.13-.36.19-.54a3.74,3.74,0,0,0,.19-.73C18.89,1.33,18.73,1.17,18.43,1.25Z"/><path class="cls-1" d="M70.56,37.27c-.1-.85-.17-1.7-.25-2.54,0-.43-.07-.85-.12-1.27S70,32.48,70,32a10.39,10.39,0,0,0-.14-1.39c-.21-.8-.18-1.63-.34-2.44a16.77,16.77,0,0,1-.14-1.74,5.4,5.4,0,0,0-.13-1.15A9.9,9.9,0,0,1,69,23.75c-.1-.57-.07-1.16-.14-1.74-.1-.82-.28-1.62-.35-2.44s-.15-1.33-.24-2c-.13-.94-.18-1.89-.26-2.84a6.43,6.43,0,0,0-.14-1.32c-.15-.49-.11-1-.21-1.47s0-1.14-.16-1.68c-.09-.39,0-.8-.12-1.15-.18-.53-.07-1.06-.2-1.59s0-1.22-.17-1.8c-.09-.43,0-.86-.11-1.28A14,14,0,0,1,66.65,2c0-.2,0-.36.25-.46s.24-.25,0-.35l-.31-.13a.18.18,0,0,1-.11-.1c0-.25-.14-.35-.26-.21A1.37,1.37,0,0,1,65,1.08,27.28,27.28,0,0,1,61.48,1,8.17,8.17,0,0,0,60,1.08,7.43,7.43,0,0,0,58.78,1c-.72.12-1.91.11-1.67.52a.17.17,0,0,1,0,.17c-.21.31-.08.65-.12,1s-.08.52-.12.79-.1.48-.12.73a3.69,3.69,0,0,1,0,1.1,3.62,3.62,0,0,0-.12,1.27.54.54,0,0,1,0,.18,12.88,12.88,0,0,0-.35,2.39,14.57,14.57,0,0,0-.14,2c0,.08,0,.17,0,.24a3.73,3.73,0,0,0-.24,1.52c0,.56-.07,1.13-.12,1.69a6.62,6.62,0,0,1-.13,1.09,9.41,9.41,0,0,0-.23,1.58,13.28,13.28,0,0,1-.15,1.68c-.07.35,0,.71-.11,1-.21.86-.21,1.74-.34,2.61-.09.65-.16,1.3-.25,1.94-.12.88-.17,1.77-.25,2.66-.05.5-.07,1-.13,1.51-.11.83-.25,1.66-.36,2.49,0,.21,0,.31-.09.36l-.07.31c0,.23,0,.47,0,.7s0,.24,0,.36a.54.54,0,0,1,0,.18l-.12.67c0,.23-.1.45-.12.67-.05.59-.07,1.17-.12,1.75a3.85,3.85,0,0,1-.14,1A10.26,10.26,0,0,0,53,38.48a6.22,6.22,0,0,1-.11,1,1.52,1.52,0,0,0,0,.81c0,.08,0,.14,0,.19h0a2,2,0,0,0,.13.38l.59-.09h6V39c0-.68.07-1.36.1-2,0-.25.12-.35.37-.35H64c.24,0,.36.09.37.34,0,.79.08,1.57.12,2.35,0,.12,0,.3,0,.35s0,.35,0,.38c-.33.23-.11.37.06.52a.86.86,0,0,0,.68.26c.59,0,1.19-.12,1.78-.11,1.07,0,2.13.08,3.19.11.28,0,.56,0,.84,0l-.06-1.12C70.82,38.85,70.66,38.06,70.56,37.27Zm-7.08-5.6c-.28,0-.6.24-.83-.1,0,0-.13,0-.18,0a6.73,6.73,0,0,1-1.9.11c-.28,0-.47-.11-.39-.37.24-.78,0-1.59.22-2.37a3.19,3.19,0,0,0,0-1.07l0-.17.13-1.47h0c0-.67,0-1.35.12-2,.07-.49,0-1,.12-1.45.14-.67,0-1.34.13-2s0-1.25.1-1.87c.13-1,.16-2,.27-3.07.07-.65,0-1.3.11-1.93a13.63,13.63,0,0,1,.34-2.62,1.93,1.93,0,0,0,0-.59c0-.6.11-1.21.11-1.81,0-.39,0-.77,0-1.16a.94.94,0,0,1,.06-.15.94.94,0,0,1,.06.15,1.62,1.62,0,0,1,.12.43c.05.88,0,1.77.14,2.64s.17,1.94.26,2.9c0,.55.06,1.09.1,1.63.07,1,.11,2,.26,2.95a14.32,14.32,0,0,1,.1,1.46c.08,1,.11,2,.27,3,.08.51,0,1,.1,1.51s.09.73.12,1.09a2.53,2.53,0,0,0,.12,1.09c0,.08,0,.2,0,.3s0,1,0,1.2c0,.53.07,1.06.12,1.58,0,.23.08.45.12.67a3.08,3.08,0,0,0,.1.92C64.08,31.52,63.92,31.7,63.48,31.67Z"/><path class="cls-1" d="M175,37.27c-.11-.85-.17-1.7-.25-2.54,0-.43-.07-.85-.13-1.27s-.17-1-.23-1.46a12.34,12.34,0,0,0-.14-1.39c-.22-.8-.18-1.63-.34-2.44a14.41,14.41,0,0,1-.14-1.74,4.83,4.83,0,0,0-.14-1.15,9.88,9.88,0,0,1-.21-1.53c-.1-.57-.07-1.16-.14-1.74-.1-.82-.28-1.62-.35-2.44s-.16-1.33-.25-2c-.12-.94-.17-1.89-.25-2.84a6.43,6.43,0,0,0-.14-1.32,12.39,12.39,0,0,1-.21-1.47c-.11-.55,0-1.14-.16-1.68-.09-.39,0-.8-.12-1.15a14.39,14.39,0,0,1-.2-1.59c-.15-.58,0-1.22-.17-1.8-.09-.43,0-.86-.11-1.28A14,14,0,0,1,171.07,2c0-.2,0-.36.25-.46s.25-.25,0-.35L171,1.08a.19.19,0,0,1-.1-.1c0-.25-.14-.35-.26-.21a1.4,1.4,0,0,1-1.22.31A27.12,27.12,0,0,1,165.91,1a8.28,8.28,0,0,0-1.48.09A7.35,7.35,0,0,0,163.2,1c-.72.12-1.91.11-1.66.52a.17.17,0,0,1,0,.17c-.21.31-.08.65-.12,1s-.08.52-.12.79-.1.48-.12.73.13.73,0,1.1a3.61,3.61,0,0,0-.11,1.27,1.09,1.09,0,0,1,0,.18,12.87,12.87,0,0,0-.34,2.39,14.57,14.57,0,0,0-.14,2c0,.08,0,.17,0,.24a3.57,3.57,0,0,0-.24,1.52c0,.56-.07,1.13-.12,1.69a6.62,6.62,0,0,1-.13,1.09,9.43,9.43,0,0,0-.24,1.58,11.66,11.66,0,0,1-.14,1.68c-.08.35,0,.71-.11,1a25.52,25.52,0,0,0-.34,2.61c-.1.65-.16,1.3-.25,1.94-.13.88-.18,1.77-.26,2.66,0,.5-.06,1-.12,1.51-.11.83-.25,1.66-.36,2.49,0,.21,0,.31-.1.36l-.06.31c0,.23,0,.47,0,.7s0,.24,0,.36a1.09,1.09,0,0,1,0,.18c0,.22-.07.45-.11.67s-.1.45-.12.67c0,.59-.08,1.17-.13,1.75a3.44,3.44,0,0,1-.13,1,10.26,10.26,0,0,0-.22,1.35,7.52,7.52,0,0,1-.11,1,1.61,1.61,0,0,0,0,.81c0,.08,0,.14,0,.19h0a1.7,1.7,0,0,0,.14.38l.59-.09h6V39c0-.68.07-1.36.1-2,0-.25.12-.35.37-.35h3.78c.25,0,.37.09.38.34,0,.79.07,1.57.11,2.35,0,.12-.05.3,0,.35a.24.24,0,0,1,0,.38c-.33.23-.11.37,0,.52a.88.88,0,0,0,.69.26c.59,0,1.19-.12,1.78-.11,1.06,0,2.13.08,3.19.11.28,0,.56,0,.84,0l-.07-1.12C175.25,38.85,175.09,38.06,175,37.27Zm-7.09-5.6c-.27,0-.59.24-.83-.1,0,0-.12,0-.17,0a6.8,6.8,0,0,1-1.91.11c-.28,0-.46-.11-.38-.37.24-.78,0-1.59.22-2.37a3.82,3.82,0,0,0,0-1.07V27.7l.14-1.47h0a19.55,19.55,0,0,1,.12-2c.07-.49,0-1,.11-1.45.14-.67,0-1.34.13-2s0-1.25.11-1.87c.13-1,.16-2,.27-3.07a17.55,17.55,0,0,1,.11-1.93,12.88,12.88,0,0,1,.34-2.62,1.93,1.93,0,0,0,0-.59c0-.6.11-1.21.11-1.81,0-.39,0-.77,0-1.16a.47.47,0,0,1,.06-.15l.06.15a2.11,2.11,0,0,1,.12.43c0,.88,0,1.77.14,2.64s.16,1.94.26,2.9c.05.55.05,1.09.09,1.63.08,1,.11,2,.27,2.95.08.49.06,1,.1,1.46.08,1,.1,2,.27,3,.08.51,0,1,.1,1.51s.08.73.12,1.09a2.53,2.53,0,0,0,.11,1.09c.05.08,0,.2,0,.3s0,1,0,1.2c0,.53.07,1.06.11,1.58,0,.23.08.45.12.67a3,3,0,0,0,.11.92C168.51,31.52,168.34,31.7,167.9,31.67Z"/><path class="cls-1" d="M91.19,38.29c0-.74,0-1.47,0-2.21a3.69,3.69,0,0,1,.11-1.44.31.31,0,0,0,0-.21h-.86c-.29-.13-.54.08-.82,0s-.8.11-1.18-.11a22.16,22.16,0,0,1-3.36.1,5,5,0,0,0,1,0,2.71,2.71,0,0,0-1.62,0,1.06,1.06,0,0,1-.46,0c-.24,0-.47,0-.7,0a4.54,4.54,0,0,1-.51.09c-.45,0-.9-.06-1.35-.11a.23.23,0,0,1-.14-.13,9.82,9.82,0,0,1-.12-1.09c0-.36,0-.73,0-1.09a28.33,28.33,0,0,1,.1-3.19,17.19,17.19,0,0,0,0-2.27c0-3.58,0-7.16,0-10.74,0-2.12,0-4.25,0-6.38,0-.26.18-.57.09-.77a2.09,2.09,0,0,1-.08-.92c0-.4.1-.8.1-1.2,0-1.81,0-3.62,0-5.43a2.71,2.71,0,0,0,0-.4L81.21,1l-.1.05a4.85,4.85,0,0,1-.75.11c-.26,0-.56.11-.8-.11A4,4,0,0,1,77.3,1s0,0-.08,0c-.54,0-1.08.1-1.61.08-.73,0-.93.14-.87.89s.05,1.36.14,2c0,.29-.23.54,0,.81-.3.49,0,1-.06,1.52a13.79,13.79,0,0,0,0,2.32c0,.16.17.39.1.47-.18.23-.09.46-.09.68q0,10.8,0,21.59s0,.08,0,.12v1a4.87,4.87,0,0,0,0,1.57c0,.06,0,.14-.06.21a.83.83,0,0,0,0,.34,2.09,2.09,0,0,1,0,1.33c0,.15.06.33.08.5s0,.51,0,.76-.09.29-.1.43a3.2,3.2,0,0,0,0,1.24c.16.41,0,.76,0,1.14a.73.73,0,0,1-.05.35h0l.1.49,0,.09h1.65c.7,0,1.4,0,2.1,0,.49,0,1-.1,1.48-.1s1,.11,1.53.11h9.13a1.45,1.45,0,0,0,.36,0c.11,0,.27-.1.28-.18a2.24,2.24,0,0,0,.11-1A7.26,7.26,0,0,1,91.19,38.29Z"/><path class="cls-1" d="M155.57,7.85c.2.18.31,0,.38-.1a.85.85,0,0,0,.11-.76,2.72,2.72,0,0,1-.19-.69c-.05-.82-.07-1.63-.09-2.45a9.45,9.45,0,0,0,0-1.19c-.07-.46-.38-.9,0-1.37,0-.05-.06-.24-.14-.34s-.18,0-.28.07l-.32.11a5.2,5.2,0,0,1-1.8.11c-.46,0-.92-.1-1.38-.1-1.66,0-3.32,0-5-.11-1.05-.08-2.11,0-3.17,0-1.61,0-3.22-.09-4.84-.11l-.16,0c-.44,0-.66.15-.75.37a1.24,1.24,0,0,1,.12.52c0,1.25,0,2.5-.07,3.76,0,.11,0,.23,0,.34s-.68.64-.48.74l.47.22.07.61a.49.49,0,0,0,.25.12c.59.06,1.18.1,1.78.13h3.17c.44,0,.5,0,.48.46,0,.82-.05,1.64-.12,2.46-.16,1.8.36,3.62.1,5.43,0,7.46-.66,14.91-.49,22.36a3,3,0,0,0,.09,1.15.41.41,0,0,1,0,.29l.15.75a.31.31,0,0,1,.18,0c.2.12.42.35.63,0l.26.16a.74.74,0,0,0,.21.09c.3-.4.66-.34,1.05-.18a.29.29,0,0,0,.24,0h.54a.61.61,0,0,0,.27,0h.67a.42.42,0,0,0,.33,0h1.39a.45.45,0,0,0-.05-.75s0-.11,0-.17c0-.88.25-1.76.24-2.64-.05-2.74.12-5.48,0-8.23-.12-3,.14-6.09,0-9.13,0-.4,0-.81,0-1.21a20.51,20.51,0,0,1,.15-3.32,5,5,0,0,0,0-.95c0-.32,0-.63,0-1s0-.6,0-.9-.31-.57-.29-.86.09-.6.1-.9a17.92,17.92,0,0,1,.15-2.63c.05-.26.12-.41.4-.38s.42.09.63.09.45-.09.68-.08c.53,0,1.06.09,1.59.1.76,0,1.51,0,2.26,0C155.3,7.81,155.48,7.78,155.57,7.85Z"/><path class="cls-1" d="M53.7,39.88a3.34,3.34,0,0,1-1.29-1.18,3.63,3.63,0,0,1-.95-1.62c-.08-.57-.07-1.15-.11-1.73a17.16,17.16,0,0,0-.06-2.15c-.11-.72,0-1.47-.1-2.2-.07-.39,0-.79-.1-1.2a15.45,15.45,0,0,0-.57-2.3A4.7,4.7,0,0,0,49,25.39a6.71,6.71,0,0,1-.71-.47,11.57,11.57,0,0,0-2.76-1.62,3.9,3.9,0,0,0-.71-.2c-.29-.08-.58-.17-.87-.23s-.22-.27-.12-.4a9,9,0,0,1,1.77-1.24,6.57,6.57,0,0,0,1.54-1.37c.42-.52.85-1,1.26-1.58a10.36,10.36,0,0,0,.7-1c.2-.33.32-.7.5-1,.41-.79.84-1.57,1.24-2.37a3,3,0,0,0,.42-1.07,8.32,8.32,0,0,0,.3-2,.32.32,0,0,1,0-.17,1.52,1.52,0,0,0,0-1.22,2.35,2.35,0,0,1,0-.74,2.72,2.72,0,0,0,0-.64,7.66,7.66,0,0,0-.61-1.88,4.85,4.85,0,0,0-.92-1.58A10.21,10.21,0,0,1,49,3.48a4.87,4.87,0,0,0-2-1.48,2.39,2.39,0,0,1-.43-.27,2.33,2.33,0,0,0-2-.29.29.29,0,0,0,.16.09c.32,0,.66.05,1,.12s.41.45.75.48l0,.11c-.16-.08-.4.16-.55-.17-.06-.13-.45-.13-.68-.19a2.91,2.91,0,0,1-1.07-.31.49.49,0,0,0-.4-.12,5.17,5.17,0,0,1-1.47,0,8.44,8.44,0,0,0-3.7-.14,8.89,8.89,0,0,1-2.39.33c-.29,0,.14-.18-.08-.07-.39.19-.66-.1-1-.07s-.66.22-.92-.12l1-.09c.2,0,.41,0,.61,0h-.12c.05,0,.1,0,.16-.06l-.15-.06c-.41,0,0,0-.44-.09A4.63,4.63,0,0,0,34,1.2a2.55,2.55,0,0,1-.39,0c0,.27-.2.16-.34.19l-.61.14h0l.06.33a1.51,1.51,0,0,1,.25.33.5.5,0,0,1,0,.34.6.6,0,0,0,0,.7.5.5,0,0,1,0,.4,6.7,6.7,0,0,0-.27,2.22c0,.85.06,1.7.07,2.56,0,.55,0,1.1,0,1.66,0,.26.05.53.08.78a6.92,6.92,0,0,1-.07,1.5,13.94,13.94,0,0,0,0,2.33c0,.13.08.28,0,.39a2.05,2.05,0,0,0,0,1.1c.08.84.08,1.7.09,2.55,0,2.24-.17,4.47,0,6.71.11,1.44.06,2.89.07,4.34,0,.35,0,.7,0,1.05v1.28a40.74,40.74,0,0,0,0,4.28c.06.86,0,1.74,0,2.6a2.65,2.65,0,0,1-.2,1.18c0,.06-.06.16,0,.19a.54.54,0,0,1,.09.16l.25.35c.84-.07,1.68,0,2.53-.08a3.4,3.4,0,0,1,1,0l.95.07h0l.95-.07s-.1,0-.15-.06a.76.76,0,0,1,.16-.06l.44-.07a2.9,2.9,0,0,1-.16-.41,2.07,2.07,0,0,1-.06-.5c0-2.55.07-5.1.13-7.65,0-.77.1-1.55.15-2.32,0-.16.05-.21.21-.2a4.07,4.07,0,0,0,1.19-.2A4.23,4.23,0,0,1,42,29.18a9.12,9.12,0,0,1,2.44.67,2,2,0,0,1,1.07,1.33h0a7.41,7.41,0,0,1,.23,1.08h0a.49.49,0,0,1,0,.12c0,1.11.06,2.22.07,3.33s0,2-.07,3a6.87,6.87,0,0,0,0,1.57c0,.27.37.62.63.57a5.73,5.73,0,0,1,1.17-.05c1.11-.06,2.22-.22,3.33-.18.19,0,.38.09.56.11s.66.2.92.1a1.33,1.33,0,0,1,1-.1.64.64,0,0,0,.72-.29C54.22,40.18,53.9,40,53.7,39.88ZM38.89,9.13a1.6,1.6,0,0,1,0,.21c0,.81.05,1.63.08,2.44,0,.05,0,.11,0,.16a1.29,1.29,0,0,0,.09-.16,2.19,2.19,0,0,0,.12-.49c0-1.07-.05-2.14-.06-3.21,0-.72.17-.84.9-.65a9.36,9.36,0,0,0,1.59,0c.24-.37.54-.1.78-.08a6.67,6.67,0,0,1,2.31.71,1.51,1.51,0,0,1,.6.6,2.84,2.84,0,0,1,0,2.81c-.26.51-.47,1-.72,1.55a14.11,14.11,0,0,1-.67,1.28c-.34.53-.73,1-1.08,1.53a19.33,19.33,0,0,1-2.54,2.22c-.3.29-1,.62-1.28.94a.2.2,0,0,1-.13.08.2.2,0,0,1-.11-.11s0-.07,0-.11c0-1.94,0-3.88,0-5.81a2.71,2.71,0,0,1,.12-.55c0-.07-.1-.08-.1-.1a18.62,18.62,0,0,1-.09-3.08C38.82,9.25,38.87,9.19,38.89,9.13Z"/><path class="cls-1" d="M193.68,33.25h.79c2.3,0,5.54.36,5.54,4.44,0,3.57-2.34,4.33-5.42,4.33H184.42c-3.11,0-5.18-1.35-5.18-4.38,0-3.62,2.51-4.31,5.3-4.31h.91v3h-1.27c-1.34,0-2.1.3-2.1,1.34s.73,1.34,2.11,1.34h10.67c1.32,0,2.34-.25,2.34-1.38s-.89-1.36-2.39-1.36h-1.13Z"/><path class="cls-1" d="M194.31,28l5.4.68v3l-20.17-3.1V24.4l20.17-3.22v3.11l-5.4.75Zm-2.86-2.61c-3.42.44-6.68.86-9,1.08v.11c1.67.08,6,.66,9,1Z"/><path class="cls-1" d="M193.77,16.49H195c1.5,0,2.34-.43,2.34-1.56s-1.15-1.46-2.46-1.46c-2.17,0-2.84.44-4.55,2.51s-2.81,3.19-5.8,3.19c-2.66,0-5.34-.77-5.34-4.25s2.66-4.11,4.85-4.11h1.08v2.95h-1c-1.41,0-2.26.22-2.26,1.21s.88,1.22,2.22,1.22,2.12-.26,3.42-2c2.23-2.89,3.53-3.77,6.9-3.77,2.86,0,5.58,1,5.58,4.55s-2.38,4.44-5,4.44h-1.2Z"/><path class="cls-1" d="M182.42,6.09V9.18h-2.88V0h2.88V3.11h17.29v3Z"/></g></g></svg>