<?xml version="1.0" encoding="utf-8"?>
<!-- Generator: Adobe Illustrator 25.4.1, SVG Export Plug-In . SVG Version: 6.00 Build 0)  -->
<svg version="1.1" id="Camada_1" xmlns:v="https://vecta.io/nano"
	 xmlns="http://www.w3.org/2000/svg" xmlns:xlink="http://www.w3.org/1999/xlink" x="0px" y="0px" viewBox="0 0 157.7 110"
	 style="enable-background:new 0 0 157.7 110;" xml:space="preserve">
<style type="text/css">
	.st0{fill:#FFFFFF;}
</style>
<path class="st0" d="M154.3,17.5c-1.8-6.7-7.1-12-13.8-13.8c-12.1-3.3-60.8-3.3-60.8-3.3S31,0.5,18.9,3.8c-6.7,1.8-12,7.1-13.8,13.8
	C1.4,39.1,0,71.9,5.2,92.5c1.8,6.7,7.1,12,13.8,13.8c12.1,3.3,60.8,3.3,60.8,3.3s48.7,0,60.8-3.3c6.7-1.8,12-7.1,13.8-13.8
	C158.3,71,159.5,38.2,154.3,17.5z M64.2,78.4V31.6L104.6,55L64.2,78.4z"/>
</svg>
